<svg width="210" height="32" xmlns="http://www.w3.org/2000/svg" xmlns:xlink="http://www.w3.org/1999/xlink" overflow="hidden"><defs><clipPath id="clip0"><rect x="0" y="0" width="210" height="32"/></clipPath></defs><g clip-path="url(#clip0)"><path d="M26 16C26 23.1797 20.1797 29 13 29 5.8203 29-3.55271e-15 23.1797-3.55271e-15 16-5.32907e-15 8.8203 5.8203 3 13 3 20.1797 3 26 8.8203 26 16Z" fill="#FFFFFF"/><path d="M25 16C25 22.6274 19.6274 28 13 28 6.37258 28 1 22.6274 1 16 1 9.37258 6.37258 4 13 4 19.6274 4 25 9.37258 25 16Z" stroke="#447BAD" stroke-width="2" fill="none"/><path d="M72 16C72 23.1797 66.1797 29 59 29 51.8203 29 46 23.1797 46 16 46 8.8203 51.8203 3 59 3 66.1797 3 72 8.8203 72 16Z" fill="#FFFFFF"/><path d="M71 16C71 22.6274 65.6274 28 59 28 52.3726 28 47 22.6274 47 16 47 9.37258 52.3726 4 59 4 65.6274 4 71 9.37258 71 16Z" stroke="#447BAD" stroke-width="2" fill="none"/><path d="M121 16C121 24.8366 113.837 32 105 32 96.1634 32 89 24.8366 89 16 89 7.16344 96.1634-1.77636e-15 105-1.77636e-15 113.837-5.32907e-15 121 7.16344 121 16Z" fill="#FFFFFF"/><path d="M120 16C120 24.2843 113.284 31 105 31 96.7157 31 90 24.2843 90 16 90 7.71573 96.7157 1 105 1 113.284 1 120 7.71573 120 16Z" stroke="#447BAD" stroke-width="2" fill="none"/><path d="M117 16C117 22.6274 111.627 28 105 28 98.3726 28 93 22.6274 93 16 93 9.37258 98.3726 4 105 4 111.627 4 117 9.37258 117 16Z" fill="#447BAD"/><path d="M116 16C116 22.0751 111.075 27 105 27 98.9249 27 94 22.0751 94 16 94 9.92487 98.9249 5 105 5 111.075 5 116 9.92487 116 16Z" stroke="#447BAD" stroke-width="2" fill="none"/><path d="M164 16C164 23.1797 158.18 29 151 29 143.82 29 138 23.1797 138 16 138 8.8203 143.82 3 151 3 158.18 3 164 8.8203 164 16Z" fill="#FFFFFF"/><path d="M163 16C163 22.6274 157.627 28 151 28 144.373 28 139 22.6274 139 16 139 9.37258 144.373 4 151 4 157.627 4 163 9.37258 163 16Z" stroke="#447BAD" stroke-width="2" fill="none"/><path d="M210 16C210 23.1797 204.18 29 197 29 189.82 29 184 23.1797 184 16 184 8.8203 189.82 3 197 3 204.18 3 210 8.8203 210 16Z" fill="#FFFFFF"/><path d="M209 16C209 22.6274 203.627 28 197 28 190.373 28 185 22.6274 185 16 185 9.37258 190.373 4 197 4 203.627 4 209 9.37258 209 16Z" stroke="#447BAD" stroke-width="2" fill="none"/></g></svg>