<svg width="65" height="44" xmlns="http://www.w3.org/2000/svg" xmlns:xlink="http://www.w3.org/1999/xlink" overflow="hidden"><defs><clipPath id="clip0"><rect x="0" y="0" width="65" height="44"/></clipPath></defs><g clip-path="url(#clip0)"><path d="M18.9991 17.4927 59.9972 17.4927" stroke="#447BAD" stroke-width="1.99991" fill="none"/><path d="M19.9991 21.4925 58.9973 21.4925" stroke="#447BAD" stroke-width="1.99991" fill="none"/><path d="M22.095 25.4923 57.9973 25.4923" stroke="#447BAD" stroke-width="1.99991" fill="none"/><path d="M17.4992 13.4929 61.4972 13.4929" stroke="#447BAD" stroke-width="1.99991" fill="none"/><path d="M1.49988 1.50845 15.5992 1.50845 17.2701 7.72116 23.6619 31.4831 56.3894 31.4831 63.4971 7.30918 17.2621 7.30918" stroke="#447BAD" stroke-width="2.99986" stroke-linecap="round" stroke-linejoin="round" fill="none"/><path d="M37.4983 37.9918C37.4983 41.3053 34.5883 43.9915 30.9986 43.9915 27.4089 43.9915 24.4989 41.3053 24.4989 37.9918 24.4989 34.6782 27.4089 31.992 30.9986 31.992 34.5883 31.992 37.4983 34.6782 37.4983 37.9918Z" fill="#FFFFFF"/><path d="M35.9983 37.9918C35.9983 40.4769 33.7599 42.4916 30.9986 42.4916 28.2373 42.4916 25.9988 40.4769 25.9988 37.9918 25.9988 35.5066 28.2373 33.492 30.9986 33.492 33.7599 33.492 35.9983 35.5066 35.9983 37.9918Z" stroke="#447BAD" stroke-width="2.99986" fill="none"/><path d="M54.4975 37.9918C54.4975 41.3053 51.5875 43.9915 47.9978 43.9915 44.4081 43.9915 41.4981 41.3053 41.4981 37.9918 41.4981 34.6782 44.4081 31.992 47.9978 31.992 51.5875 31.992 54.4975 34.6782 54.4975 37.9918Z" fill="#FFFFFF"/><path d="M52.9976 37.9918C52.9976 40.4769 50.7591 42.4916 47.9978 42.4916 45.2365 42.4916 42.998 40.4769 42.998 37.9918 42.998 35.5066 45.2365 33.492 47.9978 33.492 50.7591 33.492 52.9976 35.5066 52.9976 37.9918Z" stroke="#447BAD" stroke-width="2.99986" fill="none"/><path d="M22.094 25.4923 57.9963 25.4923" stroke="#447BAD" stroke-width="1.99991" fill="none"/></g></svg>