<svg width="103" height="35" xmlns="http://www.w3.org/2000/svg" xmlns:xlink="http://www.w3.org/1999/xlink" overflow="hidden"><defs><clipPath id="clip0"><rect x="0" y="0" width="103" height="35"/></clipPath></defs><g clip-path="url(#clip0)"><path d="M0 0 35 0 35 35 0 35Z" fill="#F5F5F5"/><path d="M0.5 0.5 34.5 0.5 34.5 34.5 0.5 34.5Z" stroke="#447BAD" fill="none"/><path d="M34 0 69 0 69 35 34 35Z" fill="#FFFFFF"/><path d="M34.5 0.5 68.5 0.5 68.5 34.5 34.5 34.5Z" stroke="#447BAD" fill="none"/><path d="M68 0 103 0 103 35 68 35Z" fill="#F5F5F5"/><path d="M68.5 0.5 102.5 0.5 102.5 34.5 68.5 34.5Z" stroke="#447BAD" fill="none"/><text fill="#447BAD" font-family="Rockwell,Rockwell_MSFontService,sans-serif" font-weight="400" font-size="30" transform="translate(43 28)">2</text><path d="M17.5 10.5 17.5 25.5006" stroke="#447BAD" stroke-width="2" fill="none"/><path d="M25.0003 18.0003 9.99972 18.0003" stroke="#447BAD" stroke-width="2" fill="none"/><path d="M93.0003 18.0003 77.9997 18.0003" stroke="#447BAD" stroke-width="2" fill="none"/></g></svg>