<svg width="332" height="50" xmlns="http://www.w3.org/2000/svg" xmlns:xlink="http://www.w3.org/1999/xlink" overflow="hidden"><defs><clipPath id="clip0"><rect x="0" y="0" width="332" height="50"/></clipPath></defs><g clip-path="url(#clip0)"><path d="M43 25C43 34.9411 34.9411 43 25 43 15.0589 43 7 34.9411 7 25 7 15.0589 15.0589 7 25 7 34.9411 7 43 15.0589 43 25Z" fill="#447BAD"/><path d="M122 25C122 34.9411 113.941 43 104 43 94.0589 43 86 34.9411 86 25 86 15.0589 94.0589 7 104 7 113.941 7 122 15.0589 122 25Z" fill="#E9C79F"/><path d="M195 25C195 34.9411 186.941 43 177 43 167.059 43 159 34.9411 159 25 159 15.0589 167.059 7 177 7 186.941 7 195 15.0589 195 25Z" fill="#0BB3D6"/><path d="M268 26C268 35.9411 259.941 44 250 44 240.059 44 232 35.9411 232 26 232 16.0589 240.059 8 250 8 259.941 8 268 16.0589 268 26Z" fill="#4FBB1B"/><path d="M332 26C332 35.9411 323.941 44 314 44 304.059 44 296 35.9411 296 26 296 16.0589 304.059 8 314 8 323.941 8 332 16.0589 332 26Z" fill="#E61026"/><path d="M331.5 26C331.5 35.665 323.665 43.5 314 43.5 304.335 43.5 296.5 35.665 296.5 26 296.5 16.335 304.335 8.5 314 8.5 323.665 8.5 331.5 16.335 331.5 26Z" stroke="#447BAD" fill="none"/><path d="M48.5 25C48.5 37.9787 37.9787 48.5 25 48.5 12.0213 48.5 1.5 37.9787 1.5 25 1.5 12.0213 12.0213 1.5 25 1.5 37.9787 1.5 48.5 12.0213 48.5 25Z" stroke="#447BAD" stroke-width="3" fill="none"/></g></svg>