<svg width="107" height="18" xmlns="http://www.w3.org/2000/svg" xmlns:xlink="http://www.w3.org/1999/xlink" overflow="hidden"><defs><clipPath id="clip0"><rect x="0" y="0" width="107" height="18"/></clipPath></defs><g clip-path="url(#clip0)"><path d="M15 9C15 12.3137 12.3137 15 9 15 5.68629 15 3 12.3137 3 9 3 5.68629 5.68629 3 9 3 12.3137 3 15 5.68629 15 9Z" fill="#447BAD"/><path d="M38 9C38 12.3137 35.3137 15 32 15 28.6863 15 26 12.3137 26 9 26 5.68629 28.6863 3 32 3 35.3137 3 38 5.68629 38 9Z" fill="#E9C79F"/><path d="M61 9C61 12.3137 58.3137 15 55 15 51.6863 15 49 12.3137 49 9 49 5.68629 51.6863 3 55 3 58.3137 3 61 5.68629 61 9Z" fill="#0BB3D6"/><path d="M84 9C84 12.3137 81.3137 15 78 15 74.6863 15 72 12.3137 72 9 72 5.68629 74.6863 3 78 3 81.3137 3 84 5.68629 84 9Z" fill="#4FBB1B"/><path d="M107 9C107 12.3137 104.314 15 101 15 97.6863 15 95 12.3137 95 9 95 5.68629 97.6863 3 101 3 104.314 3 107 5.68629 107 9Z" fill="#E61026"/><path d="M17.5 9C17.5 13.6944 13.6944 17.5 9 17.5 4.30558 17.5 0.5 13.6944 0.5 9 0.5 4.30558 4.30558 0.5 9 0.5 13.6944 0.5 17.5 4.30558 17.5 9Z" stroke="#447BAD" fill="none"/></g></svg>