<svg width="401" height="46" xmlns="http://www.w3.org/2000/svg" xmlns:xlink="http://www.w3.org/1999/xlink" overflow="hidden"><defs><clipPath id="clip0"><rect x="0" y="0" width="401" height="46"/></clipPath></defs><g clip-path="url(#clip0)"><path d="M40 23C40 32.3888 32.3888 40 23 40 13.6112 40 6 32.3888 6 23 6 13.6112 13.6112 6 23 6 32.3888 6 40 13.6112 40 23Z" fill="#447BAD"/><path d="M95 23C95 32.3888 87.3888 40 78 40 68.6112 40 61 32.3888 61 23 61 13.6112 68.6112 6 78 6 87.3888 6 95 13.6112 95 23Z" fill="#E9C79F"/><path d="M146 23C146 32.3888 138.389 40 129 40 119.611 40 112 32.3888 112 23 112 13.6112 119.611 6 129 6 138.389 6 146 13.6112 146 23Z" fill="#0BB3D6"/><path d="M197 23C197 32.3888 189.389 40 180 40 170.611 40 163 32.3888 163 23 163 13.6112 170.611 6 180 6 189.389 6 197 13.6112 197 23Z" fill="#4FBB1B"/><path d="M248 23C248 32.3888 240.389 40 231 40 221.611 40 214 32.3888 214 23 214 13.6112 221.611 6 231 6 240.389 6 248 13.6112 248 23Z" fill="#E61026"/><path d="M44.5 23C44.5 34.8741 34.8741 44.5 23 44.5 11.1259 44.5 1.5 34.8741 1.5 23 1.5 11.1259 11.1259 1.5 23 1.5 34.8741 1.5 44.5 11.1259 44.5 23Z" stroke="#447BAD" stroke-width="3" fill="none"/><path d="M299 23C299 32.3888 291.389 40 282 40 272.611 40 265 32.3888 265 23 265 13.6112 272.611 6 282 6 291.389 6 299 13.6112 299 23Z" fill="#DC3A90"/><path d="M350 23C350 32.3888 342.389 40 333 40 323.611 40 316 32.3888 316 23 316 13.6112 323.611 6 333 6 342.389 6 350 13.6112 350 23Z" fill="#D6C20B"/><path d="M401 23C401 32.3888 393.389 40 384 40 374.611 40 367 32.3888 367 23 367 13.6112 374.611 6 384 6 393.389 6 401 13.6112 401 23Z" fill="#F3AA49"/></g></svg>