<svg width="30" height="30" xmlns="http://www.w3.org/2000/svg" xmlns:xlink="http://www.w3.org/1999/xlink" overflow="hidden"><defs><clipPath id="clip0"><rect x="0" y="0" width="30" height="30"/></clipPath></defs><g clip-path="url(#clip0)"><path d="M30 15C30 23.2843 23.2843 30 15 30 6.71573 30-1.77636e-15 23.2843-1.77636e-15 15-5.32907e-15 6.71573 6.71573-3.55271e-15 15-3.55271e-15 23.2843-7.10543e-15 30 6.71573 30 15Z" fill="#F5F5F5"/><path d="M29 15C29 22.732 22.732 29 15 29 7.26801 29 1 22.732 1 15 1 7.26801 7.26801 1 15 1 22.732 1 29 7.26801 29 15Z" stroke="#447BAD" stroke-width="2" fill="none"/><path d="M7.5 7.5 22.5 22.5" stroke="#447BAD" stroke-width="3" fill="none"/><path d="M22.5 7.5 7.5 22.5" stroke="#447BAD" stroke-width="3" fill="none"/></g></svg>