<svg width="65" height="44" xmlns="http://www.w3.org/2000/svg" xmlns:xlink="http://www.w3.org/1999/xlink" overflow="hidden"><defs><clipPath id="clip0"><rect x="0" y="0" width="65" height="44"/></clipPath></defs><g clip-path="url(#clip0)"><path d="M18.9991 17.4927 59.9972 17.4927" stroke="#F5F5F5" stroke-width="1.99991" fill="none"/><path d="M19.9991 21.4925 58.9973 21.4925" stroke="#F5F5F5" stroke-width="1.99991" fill="none"/><path d="M22.095 25.4923 57.9973 25.4923" stroke="#F5F5F5" stroke-width="1.99991" fill="none"/><path d="M17.4992 13.4929 61.4972 13.4929" stroke="#F5F5F5" stroke-width="1.99991" fill="none"/><path d="M1.49988 1.50845 15.5992 1.50845 17.2701 7.72116 23.6619 31.4831 56.3894 31.4831 63.4971 7.30918 17.2621 7.30918" stroke="#F5F5F5" stroke-width="2.99986" stroke-linecap="round" stroke-linejoin="round" fill="none"/><path d="M35.9983 37.9918C35.9983 40.4769 33.7599 42.4916 30.9986 42.4916 28.2373 42.4916 25.9988 40.4769 25.9988 37.9918 25.9988 35.5066 28.2373 33.492 30.9986 33.492 33.7599 33.492 35.9983 35.5066 35.9983 37.9918Z" stroke="#F5F5F5" stroke-width="2.99986" fill="none"/><path d="M52.9976 37.9918C52.9976 40.4769 50.7591 42.4916 47.9978 42.4916 45.2365 42.4916 42.998 40.4769 42.998 37.9918 42.998 35.5066 45.2365 33.492 47.9978 33.492 50.7591 33.492 52.9976 35.5066 52.9976 37.9918Z" stroke="#F5F5F5" stroke-width="2.99986" fill="none"/><path d="M22.094 25.4923 57.9963 25.4923" stroke="#F5F5F5" stroke-width="1.99991" fill="none"/></g></svg>