<svg width="29" height="37" xmlns="http://www.w3.org/2000/svg" xmlns:xlink="http://www.w3.org/1999/xlink" overflow="hidden"><defs><clipPath id="clip0"><rect x="0" y="0" width="29" height="37"/></clipPath></defs><g clip-path="url(#clip0)"><path d="M12.649 0.125C6.5 0.81 0.377 5.784 0.121 12.89-0.038 17.229 1.194 20.483 5.321 21.397 7.113 18.236 4.743 17.539 4.375 15.252 2.863 5.882 15.185-0.509 21.633 6.034 26.094 10.564 23.157 24.501 15.961 23.052 9.068 21.668 19.335 10.574 13.833 8.396 9.361 6.625 6.984 13.811 9.105 17.38 7.862 23.518 5.185 29.301 6.269 36.999 9.784 34.449 10.969 29.564 11.941 24.471 13.708 25.544 14.65 26.66 16.905 26.834 25.217 27.477 29.859 18.534 28.725 10.289 27.717 2.977 20.419-0.743 12.649 0.125Z" fill="#CB2027"/></g></svg>