<svg width="26" height="26" xmlns="http://www.w3.org/2000/svg" xmlns:xlink="http://www.w3.org/1999/xlink" overflow="hidden"><defs><clipPath id="clip0"><rect x="0" y="0" width="26" height="26"/></clipPath></defs><g clip-path="url(#clip0)"><path d="M26 13C26 20.1797 20.1797 26 13 26 5.8203 26-3.55271e-15 20.1797-3.55271e-15 13-5.32907e-15 5.8203 5.8203-3.55271e-15 13-3.55271e-15 20.1797-5.32907e-15 26 5.8203 26 13Z" fill="#FFFFFF"/><path d="M25 13C25 19.6274 19.6274 25 13 25 6.37258 25 1 19.6274 1 13 1 6.37258 6.37258 1 13 1 19.6274 1 25 6.37258 25 13Z" stroke="#447BAD" stroke-width="2" fill="none"/></g></svg>