<svg width="32" height="32" xmlns="http://www.w3.org/2000/svg" xmlns:xlink="http://www.w3.org/1999/xlink" overflow="hidden"><defs><clipPath id="clip0"><rect x="0" y="0" width="32" height="32"/></clipPath></defs><g clip-path="url(#clip0)"><path d="M32 16C32 24.8366 24.8366 32 16 32 7.16344 32-1.77636e-15 24.8366-1.77636e-15 16-5.32907e-15 7.16344 7.16344-1.77636e-15 16-1.77636e-15 24.8366-5.32907e-15 32 7.16344 32 16Z" fill="#FFFFFF"/><path d="M31 16C31 24.2843 24.2843 31 16 31 7.71573 31 1 24.2843 1 16 1 7.71573 7.71573 1 16 1 24.2843 1 31 7.71573 31 16Z" stroke="#447BAD" stroke-width="2" fill="none"/><path d="M28 16C28 22.6274 22.6274 28 16 28 9.37258 28 4 22.6274 4 16 4 9.37258 9.37258 4 16 4 22.6274 4 28 9.37258 28 16Z" fill="#447BAD"/><path d="M27 16C27 22.0751 22.0751 27 16 27 9.92487 27 5 22.0751 5 16 5 9.92487 9.92487 5 16 5 22.0751 5 27 9.92487 27 16Z" stroke="#447BAD" stroke-width="2" fill="none"/></g></svg>