<svg width="41" height="40" xmlns="http://www.w3.org/2000/svg" xmlns:xlink="http://www.w3.org/1999/xlink" overflow="hidden"><defs><clipPath id="clip0"><rect x="0" y="0" width="41" height="40"/></clipPath></defs><g clip-path="url(#clip0)"><path d="M39.4464 18.2118C39.4464 28.2667 30.616 36.4178 19.7232 36.4178 8.83038 36.4178 0 28.2667 0 18.2118-3.59338e-15 8.15684 8.83038 0.00572331 19.7232 0.00572331 30.616 0.00572331 39.4464 8.15684 39.4464 18.2118Z" fill="#FFFFFF"/><path d="M36.9178 18.2118C36.9178 26.8702 29.2195 33.8892 19.7232 33.8892 10.2269 33.8892 2.52862 26.8702 2.52862 18.2118 2.52862 9.55336 10.2269 2.53434 19.7232 2.53434 29.2195 2.53434 36.9178 9.55336 36.9178 18.2118Z" stroke="#447BAD" stroke-width="5.05723" fill="none"/><path d="M32.3663 31.3606 37.4235 36.4178" stroke="#447BAD" stroke-width="5.05723" stroke-linecap="round" fill="none"/></g></svg>