<svg width="420" height="29" xmlns="http://www.w3.org/2000/svg" xmlns:xlink="http://www.w3.org/1999/xlink" overflow="hidden"><defs><clipPath id="clip0"><rect x="0" y="0" width="420" height="29"/></clipPath></defs><g clip-path="url(#clip0)"><path d="M0 0 50 0 50 29 0 29Z" fill="#F5F5F5"/><path d="M60 0 110 0 110 29 60 29Z" fill="#F5F5F5"/><path d="M119 0 169 0 169 29 119 29Z" fill="#447BAD"/><path d="M179 0 229 0 229 29 179 29Z" fill="#F5F5F5"/><path d="M239 0 289 0 289 29 239 29Z" fill="#F5F5F5"/><path d="M299 0 355 0 355 29 299 29Z" fill="#F5F5F5"/><path d="M365 0 420 0 420 29 365 29Z" fill="#F5F5F5"/><text fill="#447BAD" font-family="Rockwell,Rockwell_MSFontService,sans-serif" font-weight="400" font-size="19" transform="translate(79 21)">S<tspan fill="#FFFFFF" font-weight="700" font-size="19" x="56" y="1">M</tspan><tspan font-size="19" x="120" y="1">L</tspan><tspan font-size="19" x="174" y="1">XL</tspan><tspan font-size="19" x="232" y="0">2</tspan>XL<tspan font-size="19" x="297" y="0">3</tspan>XL<tspan font-size="19" x="-65" y="1">XS</tspan></text></g></svg>