<svg width="325" height="41" xmlns="http://www.w3.org/2000/svg" xmlns:xlink="http://www.w3.org/1999/xlink" overflow="hidden"><defs><clipPath id="clip0"><rect x="0" y="0" width="325" height="41"/></clipPath></defs><g clip-path="url(#clip0)"><path d="M38.7307 39.8639 24.759 31.4044 24.5 31.2476 24.241 31.4044 10.2693 39.8639 15.0633 25.6571 15.1852 25.2959 14.8691 25.0827 1.58335 16.1251 18.3862 15.7472 18.716 15.7397 18.839 15.4337 24.5 1.34134 30.161 15.4337 30.284 15.7397 30.6138 15.7471 47.4167 16.1251 34.1309 25.0827 33.8148 25.2959 33.9367 25.6571 38.7307 39.8639Z" fill="#E5D965"/><path d="M24.5 2.6827 19.057 16.2322 3.16672 16.5896 15.7809 25.0944 11.1803 38.7277 24.5 30.6631 37.8196 38.7277 33.2191 25.0944 45.8333 16.5896 29.943 16.2322 24.5 2.6827M24.5 0 30.625 15.2473 49 15.6606 34.4105 25.4973 39.6418 41 24.5 31.8321 9.35817 41 14.5895 25.4973 0 15.6606 18.375 15.2473 24.5 0Z" fill="#E5D965"/><path d="M107.731 39.8639 93.759 31.4044 93.5 31.2476 93.241 31.4044 79.2693 39.8639 84.0633 25.6571 84.1852 25.2959 83.8691 25.0827 70.5834 16.1251 87.3862 15.7472 87.716 15.7397 87.839 15.4337 93.5 1.34134 99.161 15.4337 99.284 15.7397 99.6138 15.7471 116.417 16.1251 103.131 25.0827 102.815 25.2959 102.937 25.6571 107.731 39.8639Z" fill="#E5D965"/><path d="M93.5 2.6827 88.057 16.2322 72.1667 16.5896 84.7809 25.0944 80.1803 38.7277 93.5 30.6631 106.82 38.7277 102.219 25.0944 114.833 16.5896 98.943 16.2322 93.5 2.6827M93.5 0 99.625 15.2473 118 15.6606 103.41 25.4973 108.642 41 93.5 31.8321 78.3582 41 83.5895 25.4973 69 15.6606 87.375 15.2473 93.5 0Z" fill="#E5D965"/><path d="M176.731 39.8639 162.759 31.4044 162.5 31.2476 162.241 31.4044 148.269 39.8639 153.063 25.6571 153.185 25.2959 152.869 25.0827 139.583 16.1251 156.386 15.7472 156.716 15.7397 156.839 15.4337 162.5 1.34134 168.161 15.4337 168.284 15.7397 168.614 15.7471 185.417 16.1251 172.131 25.0827 171.815 25.2959 171.937 25.6571 176.731 39.8639Z" fill="#E5D965"/><path d="M162.5 2.6827 157.057 16.2322 141.167 16.5896 153.781 25.0944 149.18 38.7277 162.5 30.6631 175.82 38.7277 171.219 25.0944 183.833 16.5896 167.943 16.2322 162.5 2.6827M162.5 0 168.625 15.2473 187 15.6606 172.41 25.4973 177.642 41 162.5 31.8321 147.358 41 152.59 25.4973 138 15.6606 156.375 15.2473 162.5 0Z" fill="#E5D965"/><path d="M245.731 39.8639 231.759 31.4044 231.5 31.2476 231.241 31.4044 217.269 39.8639 222.063 25.6571 222.185 25.2959 221.869 25.0827 208.583 16.1251 225.386 15.7472 225.716 15.7397 225.839 15.4337 231.5 1.34134 237.161 15.4337 237.284 15.7397 237.614 15.7471 254.417 16.1251 241.131 25.0827 240.815 25.2959 240.937 25.6571 245.731 39.8639Z" fill="#E5D965"/><path d="M231.5 2.6827 226.057 16.2322 210.167 16.5896 222.781 25.0944 218.18 38.7277 231.5 30.6631 244.82 38.7277 240.219 25.0944 252.833 16.5896 236.943 16.2322 231.5 2.6827M231.5 0 237.625 15.2473 256 15.6606 241.41 25.4973 246.642 41 231.5 31.8321 216.358 41 221.59 25.4973 207 15.6606 225.375 15.2473 231.5 0Z" fill="#E5D965"/><path d="M314.731 39.8639 300.759 31.4044 300.5 31.2476 300.241 31.4044 286.269 39.8639 291.063 25.6571 291.185 25.2959 290.869 25.0827 277.583 16.1251 294.386 15.7472 294.716 15.7397 294.839 15.4337 300.5 1.34134 306.161 15.4337 306.284 15.7397 306.614 15.7471 323.417 16.1251 310.131 25.0827 309.815 25.2959 309.937 25.6571 314.731 39.8639Z" fill="#FFFFFF"/><path d="M300.5 2.6827 295.057 16.2322 279.167 16.5896 291.781 25.0944 287.18 38.7277 300.5 30.6631 313.82 38.7277 309.219 25.0944 321.833 16.5896 305.943 16.2322 300.5 2.6827M300.5 0 306.625 15.2473 325 15.6606 310.41 25.4973 315.642 41 300.5 31.8321 285.358 41 290.59 25.4973 276 15.6606 294.375 15.2473 300.5 0Z" fill="#E5D965"/></g></svg>