<svg width="21" height="18" xmlns="http://www.w3.org/2000/svg" xmlns:xlink="http://www.w3.org/1999/xlink" overflow="hidden"><defs><clipPath id="clip0"><rect x="0" y="0" width="21" height="18"/></clipPath></defs><g clip-path="url(#clip0)"><path d="M16.0842 16.8502 10.7635 13.5502 10.5 13.3867 10.2365 13.5502 4.91583 16.8502 6.72756 11.3504 6.84459 10.9951 6.53681 10.7825 1.55216 7.33976 7.88652 7.1938 8.21905 7.18613 8.34049 6.87647 10.5 1.36957 12.6595 6.87646 12.7809 7.18612 13.1135 7.19379 19.4478 7.33976 14.4632 10.7825 14.1554 10.9951 14.2724 11.3504 16.0842 16.8502Z" fill="#E5D965"/><path d="M10.5 2.73914 8.56311 7.67834 3.10431 7.80412 7.43652 10.7962 5.82101 15.7004 10.5 12.7983 15.179 15.7004 13.5635 10.7962 17.8957 7.80412 12.4369 7.67833 10.5 2.73914M10.5 0 13.125 6.69392 21 6.87539 14.7473 11.1939 16.9893 18 10.5 13.9751 4.01064 18 6.25266 11.1939 0 6.87539 7.875 6.69393 10.5 0Z" fill="#E5D965"/></g></svg>