<svg width="49" height="41" xmlns="http://www.w3.org/2000/svg" xmlns:xlink="http://www.w3.org/1999/xlink" overflow="hidden"><defs><clipPath id="clip0"><rect x="0" y="0" width="49" height="41"/></clipPath></defs><g clip-path="url(#clip0)"><path d="M38.7307 39.8639 24.759 31.4044 24.5 31.2476 24.241 31.4044 10.2693 39.8639 15.0633 25.6571 15.1852 25.2959 14.8691 25.0827 1.58335 16.1251 18.3862 15.7472 18.716 15.7397 18.839 15.4337 24.5 1.34134 30.161 15.4337 30.284 15.7397 30.6138 15.7471 47.4167 16.1251 34.1309 25.0827 33.8148 25.2959 33.9367 25.6571 38.7307 39.8639Z" fill="#FFFFFF"/><path d="M24.5 2.6827 19.057 16.2322 3.16672 16.5896 15.7809 25.0944 11.1803 38.7277 24.5 30.6631 37.8196 38.7277 33.2191 25.0944 45.8333 16.5896 29.943 16.2322 24.5 2.6827M24.5 0 30.625 15.2473 49 15.6606 34.4105 25.4973 39.6418 41 24.5 31.8321 9.35817 41 14.5895 25.4973 0 15.6606 18.375 15.2473 24.5 0Z" fill="#E5D965"/></g></svg>