<svg width="258" height="85" xmlns="http://www.w3.org/2000/svg" xmlns:xlink="http://www.w3.org/1999/xlink" overflow="hidden"><defs><clipPath id="clip0"><rect x="0" y="0" width="258" height="85"/></clipPath></defs><g clip-path="url(#clip0)"><path d="M0 0 258 0 258 85 0 85Z" fill="#F5F5F5"/><path d="M0.5 0.5 257.5 0.5 257.5 84.5 0.5 84.5Z" stroke="#447BAD" fill="none"/><path d="M104.731 42.9053C102.182 42.9053 100.908 44.7471 100.908 48.4307 100.908 49.9388 101.225 51.1833 101.859 52.1643 102.493 53.1453 103.45 53.6357 104.731 53.6357 105.879 53.6357 106.81 53.1953 107.524 52.3145 108.238 51.4336 108.595 50.0522 108.595 48.1704 108.595 46.5155 108.248 45.2242 107.554 44.2966 106.86 43.3691 105.919 42.9053 104.731 42.9053ZM169.751 42.2446C167.483 42.2446 166.161 43.5459 165.788 46.1484L173.896 46.1484C173.752 45.0674 173.329 44.1465 172.627 43.3857 171.924 42.625 170.966 42.2446 169.751 42.2446ZM198.296 38.3208C202.206 38.3208 204.162 40.8166 204.162 45.8081L204.162 53.5356 207.084 53.5356 207.084 58 197.976 58 197.976 46.2686C197.976 45.2142 197.832 44.4935 197.545 44.1064 197.258 43.7194 196.788 43.5259 196.134 43.5259 194.986 43.5259 193.812 43.9463 192.61 44.7871L192.61 53.5356 195.593 53.5356 195.593 58 183.461 58 183.461 53.5356 186.424 53.5356 186.424 43.0854 183.461 43.0854 183.461 38.6211 192.61 38.6211 192.61 40.4229C194.479 39.0215 196.374 38.3208 198.296 38.3208ZM133.856 38.3208C136.352 38.3208 138.287 39.2017 139.662 40.9634 142.158 39.2017 144.767 38.3208 147.49 38.3208 149.105 38.3208 150.416 38.6178 151.424 39.2117 152.431 39.8056 153.122 40.603 153.496 41.604 153.869 42.605 154.056 44.1198 154.056 46.1484L154.056 53.5356 157.259 53.5356 157.259 58 147.87 58 147.87 46.6489C147.87 44.6203 146.996 43.606 145.248 43.606 143.873 43.606 142.385 44.0464 140.783 44.9272L140.783 53.5356 143.986 53.5356 143.986 58 134.597 58 134.597 46.8291C134.597 44.6803 133.756 43.606 132.075 43.606 130.767 43.606 129.265 44.0464 127.57 44.9272L127.57 53.5356 130.773 53.5356 130.773 58 118.181 58 118.181 53.5356 121.384 53.5356 121.384 43.0854 118.181 43.0854 118.181 38.6211 127.57 38.6211 127.57 40.2026C129.679 38.9481 131.774 38.3208 133.856 38.3208ZM170.072 38.1406C172.287 38.1406 174.202 38.7012 175.817 39.8223 177.432 40.9434 178.553 42.3381 179.181 44.0063 179.808 45.6746 180.122 47.5365 180.122 49.5918L165.688 49.5918C165.781 51.3535 166.338 52.6014 167.359 53.3354 168.38 54.0695 169.458 54.4365 170.592 54.4365 172.074 54.4365 173.569 53.6758 175.077 52.1543L179.881 53.6958C177.866 56.8589 174.716 58.4404 170.432 58.4404 167.015 58.4404 164.35 57.5396 162.434 55.7378 160.519 53.936 159.562 51.5671 159.562 48.6309 159.562 45.6413 160.549 43.1455 162.524 41.1436 164.5 39.1416 167.015 38.1406 170.072 38.1406ZM104.751 38.1406C107.621 38.1406 110.037 39.0448 111.999 40.8533 113.96 42.6617 114.941 45.1408 114.941 48.2905 114.941 51.4002 113.97 53.8693 112.029 55.6978 110.087 57.5262 107.661 58.4404 104.751 58.4404 101.895 58.4404 99.483 57.5362 97.5144 55.7278 95.5458 53.9194 94.5615 51.4403 94.5615 48.2905 94.5615 45.1408 95.5458 42.6617 97.5144 40.8533 99.483 39.0448 101.895 38.1406 104.751 38.1406ZM51.96 30.1528 64.5122 30.1528 64.5122 34.8574 61.6294 34.8574 66.1538 48.2305 70.3979 34.8574 67.8755 34.8574 67.8755 30.1528 77.8853 30.1528 77.8853 34.8574 75.3027 34.8574 79.8672 48.2305 84.2515 34.8574 81.4688 34.8574 81.4688 30.1528 92.6196 30.1528 92.6196 34.8574 89.5967 34.8574 81.9092 58.1802 76.7041 58.1802 72.3198 45.4678 68.1758 58.1802 62.8506 58.1802 54.9028 34.8574 51.96 34.8574Z" stroke="#447BAD" fill="#447BAD" fill-rule="evenodd"/><text fill="#000000" fill-opacity="0" font-family="Arial,Arial_MSFontService,sans-serif" font-size="28.2876" x="51.96" y="54.9045">Women</text></g></svg>